<?xml version="1.0" encoding="UTF-8" standalone="no"?>
<svg
   width="256"
   zoomAndPan="magnify"
   viewBox="0 0 192 192"
   height="256"
   preserveAspectRatio="xMidYMid"
   version="1.0"
   id="svg35"
   sodipodi:docname="header.svg"
   inkscape:version="1.4.2 (ebf0e940d0, 2025-05-08)"
   xmlns:inkscape="http://www.inkscape.org/namespaces/inkscape"
   xmlns:sodipodi="http://sodipodi.sourceforge.net/DTD/sodipodi-0.dtd"
   xmlns="http://www.w3.org/2000/svg"
   xmlns:svg="http://www.w3.org/2000/svg">
  <sodipodi:namedview
     id="namedview35"
     pagecolor="#ef5552"
     bordercolor="#000000"
     borderopacity="0.25"
     inkscape:showpageshadow="2"
     inkscape:pageopacity="0.0"
     inkscape:pagecheckerboard="0"
     inkscape:deskcolor="#d1d1d1"
     inkscape:zoom="2.8190535"
     inkscape:cx="112.98118"
     inkscape:cy="142.60105"
     inkscape:window-width="2048"
     inkscape:window-height="1181"
     inkscape:window-x="0"
     inkscape:window-y="0"
     inkscape:window-maximized="1"
     inkscape:current-layer="path36" />
  <defs
     id="defs3">
    <g
       id="g1" />
    <clipPath
       id="6cdfce5ce7">
      <path
         d="m 297.85156,216.73437 h 172.5 v 222 h -172.5 z m 0,0"
         clip-rule="nonzero"
         id="path2" />
    </clipPath>
    <clipPath
       id="3f6864d213">
      <rect
         x="0"
         width="457"
         y="0"
         height="144"
         id="rect2" />
    </clipPath>
    <clipPath
       id="fc33a3a7f1">
      <rect
         x="0"
         width="458"
         y="0"
         height="144"
         id="rect3" />
    </clipPath>
    <clipPath
       id="361337c9b8">
      <path
         d="M 69,13 H 699 V 641.19531 H 69 Z m 0,0"
         clip-rule="nonzero"
         id="path1-3" />
    </clipPath>
    <clipPath
       clipPathUnits="userSpaceOnUse"
       id="clipPath109">
      <path
         d="M 8.2499985,8.2499993 H 183.86817 V 183.8244 H 8.2499985 Z m 0,0"
         clip-rule="nonzero"
         id="path109"
         style="stroke-width:0.280093" />
    </clipPath>
  </defs>
  <g
     id="path36"
     style="opacity:1"
     transform="matrix(0.28009277,0,0,0.28009277,-11.488883,4.2849361)"
     inkscape:label="hand group">
    <path
       style="baseline-shift:baseline;display:inline;overflow:visible;vector-effect:none;fill:#ffffff;enable-background:accumulate;stop-color:#000000;stop-opacity:1;fill-opacity:1"
       d="m 460.54655,422.65333 c -2.32124,0 -4.55341,-0.44015 -6.69125,-1.3309 -2.14308,-0.88555 -4.03465,-2.15357 -5.66947,-3.79364 l -77.45554,-77.44504 c -1.64006,-1.64006 -2.90286,-3.53164 -3.78838,-5.67473 -0.88553,-2.13784 -1.33091,-4.37 -1.33091,-6.68599 V 189.48618 c 0,-1.14752 0.11519,-2.28455 0.34057,-3.41112 0.2201,-1.12655 0.55545,-2.22168 0.99034,-3.28012 0.44014,-1.06369 0.97985,-2.06973 1.61911,-3.02337 0.63926,-0.95365 1.36234,-1.83918 2.17452,-2.65136 0.81218,-0.81217 1.69246,-1.53526 2.64612,-2.17451 0.95887,-0.63402 1.96492,-1.17372 3.02336,-1.61388 1.06368,-0.44013 2.15357,-0.77024 3.28013,-0.99556 1.12655,-0.2253 2.2636,-0.33535 3.41111,-0.33535 1.14752,0 2.28457,0.10996 3.41112,0.33535 1.12657,0.22532 2.22168,0.55543 3.28013,0.99556 1.06368,0.44016 2.06972,0.97986 3.02337,1.61388 0.95365,0.63925 1.83918,1.36234 2.65135,2.17451 0.81217,0.81218 1.53527,1.69771 2.17453,2.65136 0.63925,0.95364 1.17372,1.95968 1.61386,3.02337 0.44014,1.05844 0.77025,2.15357 0.99556,3.28012 0.22532,1.12657 0.33535,2.2636 0.33535,3.41112 v 130.99541 l 72.36765,72.36766 c 1.22089,1.22088 2.24265,2.59372 3.06006,4.1185 0.81218,1.52479 1.38855,3.13865 1.72915,4.83111 0.33535,1.6977 0.41919,3.40588 0.25151,5.12978 -0.16767,1.71866 -0.58686,3.37969 -1.24708,4.97784 -0.66022,1.59812 -1.54051,3.06528 -2.64086,4.40144 -1.09514,1.33614 -2.36316,2.4889 -3.80412,3.44779 -1.4357,0.95888 -2.98145,1.69246 -4.63724,2.19025 -1.65576,0.50301 -3.34824,0.75452 -5.07738,0.75452 z"
       id="path115"
       inkscape:label="hand" />
    <path
       id="path116"
       style="baseline-shift:baseline;display:inline;overflow:visible;vector-effect:none;fill:#ffffff;enable-background:accumulate;stop-color:#000000;stop-opacity:1;fill-opacity:1"
       inkscape:label="circle"
       d="m 408.61331,265.29894 6.7e-4,17.69786 c 15.5535,8.68252 26.02374,25.29501 26.02374,44.44851 0,4.80241 -0.65655,9.44566 -1.88798,13.84342 l 12.5255,12.53072 c 3.49085,-8.09933 5.42859,-17.01833 5.42859,-26.37414 0,-28.10146 -17.46211,-52.24613 -42.09052,-62.14637 z m 0.19547,124.22045 -12.69415,-12.69382 c -3.95198,0.97802 -8.08953,1.49574 -12.35291,1.49574 -28.19319,0 -50.876,-22.68281 -50.876,-50.876 0,-18.60205 9.87312,-34.80294 24.69013,-43.67449 l 8e-4,-17.92296 c -23.92431,10.22423 -40.75704,34.00479 -40.75704,61.59745 0,36.87596 30.06615,66.94211 66.94211,66.94211 8.84773,0 17.3046,-1.72759 25.04706,-4.86803 z m -12.69415,-12.69382 c 5.70843,-1.41269 0,0 0,0 z"
       sodipodi:nodetypes="ccsccscccssccssccc" />
  </g>
  <path
     fill="#231f20"
     d="m 165.86124,97.104232 c 0.0272,-0.84381 0.66611,-1.843713 1.42053,-2.2225 l 15.3184,-7.680496 c 0.75441,-0.377697 1.26245,-1.369962 1.12835,-2.203944 l -3.53115,-16.29759 c -0.22568,-0.814333 -1.10002,-1.523873 -1.94165,-1.578454 l -17.4203,-1.128715 c -0.84163,-0.05458 -1.84244,-0.714999 -2.22401,-1.468202 l -2.369,-4.360943 c -0.42409,-0.730278 -0.41973,-1.921215 0.0109,-2.647129 l 8.79681,-14.851222 c 0.43063,-0.725911 0.32706,-1.840439 -0.22785,-2.475748 L 152.96963,28.08781 c -0.62359,-0.568724 -1.73778,-0.698625 -2.47475,-0.288183 l -15.15705,8.421697 c -0.73806,0.409347 -1.93183,0.386424 -2.65354,-0.05022 l -4.09588,-2.329476 c -0.74461,-0.396247 -1.3791,-1.411438 -1.40963,-2.255245 L 126.55519,14.18846 c -0.0294,-0.844899 -0.71517,-1.734553 -1.52192,-1.979071 L 108.61595,8.2774499 c -0.82964,-0.1506412 -1.8348,0.3340296 -2.23382,1.0785008 L 98.229623,24.549933 c -0.399015,0.74338 -1.074938,1.345943 -1.501208,1.337211 h -0.388108 c -2.365733,0 -5.478256,0.235785 -5.478256,0.235785 -0.841631,0.06331 -1.923108,-0.451923 -2.403888,-1.14618 L 78.492648,10.611291 C 78.011868,9.9170331 76.953288,9.5349731 76.139997,9.7598425 L 60.459659,15.056287 c -0.782764,0.315472 -1.3682,1.261889 -1.30279,2.103513 l 1.336583,17.075901 c 0.0665,0.841626 -0.460061,1.904844 -1.168693,2.363314 l -4.985483,3.456009 c -0.677012,0.503225 -1.8686,0.651683 -2.648092,0.328571 L 35.547508,33.690994 c -0.779493,-0.323115 -1.878415,-0.07423 -2.443138,0.553441 L 23.042917,46.737799 c -0.492767,0.684432 -0.479687,1.794591 0.03053,2.468107 l 10.294754,13.576231 c 0.510214,0.672425 0.636679,1.84917 0.282365,2.616565 l -2.799634,6.710065 c -0.295445,0.791411 -1.216664,1.560991 -2.047394,1.710541 l -17.127037,3.097958 c -0.830732,0.149552 -1.617856,0.954063 -1.7508605,1.789134 0,0 -1.6756366,10.54595 -1.6756366,16.841208 v 0.03384 c 0.00109,0.03711 0.6497587,0.304556 1.4423338,0.59383 L 25.67575,102.0208 c 0.791483,0.29036 1.537183,1.21058 1.656012,2.04675 l 1.499026,8.18045 c 0.186424,0.82306 -0.165712,1.96706 -0.782762,2.54343 l -12.659399,11.80456 c -0.617052,0.57637 -0.837273,1.67561 -0.489499,2.44518 l 6.904236,13.40377 c 0.426265,0.72918 1.446693,1.17456 2.269793,0.98898 l 16.673514,-3.75074 c 0.8231,-0.18557 1.952546,0.18121 2.510729,0.81434 l 6.146543,6.39896 c 0.609421,0.58401 0.938664,1.73019 0.730435,2.54889 l -4.244148,16.65781 c -0.208227,0.8187 0.203868,1.85791 0.916859,2.30983 l 13.015894,7.34538 c 0.755505,0.3766 1.856606,0.19212 2.449677,-0.40826 l 12.073959,-12.25539 c 0.591979,-0.60148 1.74323,-0.91368 2.557608,-0.69426 l 8.584233,1.9103 c 0.83073,0.14846 1.727965,0.92567 1.993975,1.72691 l 5.387767,16.19934 c 0.266006,0.80015 1.174146,1.47585 2.017956,1.49986 0,0 0.451344,0.0131 1.449967,0.0131 5.178445,0 13.664565,-1.11125 13.664565,-1.11125 0.83618,-0.10916 1.66255,-0.87546 1.83589,-1.7018 l 3.56605,-16.96893 c 0.17334,-0.82634 0.96918,-1.72145 1.76939,-1.9889 l 7.5529,-2.86763 c 0.77622,-0.33185 1.94819,-0.1692 2.60449,0.36023 l 13.24919,10.68786 c 0.65739,0.52942 1.76504,0.57527 2.46277,0.10042 l 12.43808,-9.44343 c 0.64431,-0.5458 0.92449,-1.6374 0.62469,-2.42663 l -6.20215,-16.31069 c -0.2998,-0.78922 -0.11774,-1.97688 0.40556,-2.63949 l 4.10569,-5.60427 c 0.47423,-0.69753 1.54808,-1.1964 2.38753,-1.10579 l 16.95152,1.82188 c 0.83836,0.0906 1.79773,-0.47048 2.13134,-1.24552 l 5.55238,-15.20381 c 0.24639,-0.80778 -0.10684,-1.87973 -0.78494,-2.38077 l -14.06794,-10.39531 c -0.67919,-0.50105 -1.16869,-1.5992 -1.08911,-2.43973 z M 96.113544,147.27854 c -28.351729,0 -51.336408,-23.01312 -51.336408,-51.402361 0,-28.388152 22.983589,-51.401269 51.336408,-51.401269 28.352816,0 51.335316,23.013117 51.335316,51.401269 0,28.389241 -22.9825,51.402361 -51.335316,51.402361 z m 0,0"
     fill-opacity="1"
     fill-rule="nonzero"
     id="path3-5"
     style="stroke-width:0.27927;fill:#ffffff;fill-opacity:1"
     clip-path="url(#clipPath109)"
     inkscape:label="gear" />
</svg>
